<svg xmlns="http://www.w3.org/2000/svg" xmlns:xlink="http://www.w3.org/1999/xlink" width="80" zoomAndPan="magnify" viewBox="0 0 60 30.000001" height="40" preserveAspectRatio="xMidYMid meet" version="1.0"><defs><g/><clipPath id="208ae43f73"><path d="M 0.96875 8.097656 L 16.210938 8.097656 L 16.210938 21 L 0.96875 21 Z M 0.96875 8.097656 " clip-rule="nonzero"/></clipPath></defs><g fill="#30cfd0" fill-opacity="1"><g transform="translate(18.06063, 17.572003)"><g><path d="M 2.9375 -5.671875 C 3.65625 -5.671875 4.242188 -5.523438 4.703125 -5.234375 C 5.160156 -4.953125 5.394531 -4.523438 5.40625 -3.953125 L 5.40625 -3.859375 L 3.734375 -3.859375 L 3.734375 -3.890625 C 3.734375 -4.054688 3.671875 -4.191406 3.546875 -4.296875 C 3.429688 -4.398438 3.253906 -4.453125 3.015625 -4.453125 C 2.773438 -4.453125 2.585938 -4.414062 2.453125 -4.34375 C 2.328125 -4.28125 2.265625 -4.195312 2.265625 -4.09375 C 2.265625 -3.945312 2.351562 -3.835938 2.53125 -3.765625 C 2.707031 -3.703125 2.984375 -3.628906 3.359375 -3.546875 C 3.804688 -3.453125 4.175781 -3.351562 4.46875 -3.25 C 4.757812 -3.15625 5.015625 -2.992188 5.234375 -2.765625 C 5.453125 -2.546875 5.5625 -2.238281 5.5625 -1.84375 C 5.5625 -1.1875 5.335938 -0.695312 4.890625 -0.375 C 4.441406 -0.0625 3.847656 0.09375 3.109375 0.09375 C 2.234375 0.09375 1.550781 -0.0507812 1.0625 -0.34375 C 0.582031 -0.632812 0.34375 -1.148438 0.34375 -1.890625 L 2.046875 -1.890625 C 2.046875 -1.609375 2.117188 -1.421875 2.265625 -1.328125 C 2.410156 -1.234375 2.632812 -1.1875 2.9375 -1.1875 C 3.164062 -1.1875 3.351562 -1.207031 3.5 -1.25 C 3.65625 -1.300781 3.734375 -1.40625 3.734375 -1.5625 C 3.734375 -1.695312 3.648438 -1.796875 3.484375 -1.859375 C 3.316406 -1.929688 3.046875 -2.003906 2.671875 -2.078125 C 2.222656 -2.171875 1.847656 -2.269531 1.546875 -2.375 C 1.253906 -2.476562 0.992188 -2.648438 0.765625 -2.890625 C 0.546875 -3.140625 0.4375 -3.472656 0.4375 -3.890625 C 0.4375 -4.503906 0.671875 -4.953125 1.140625 -5.234375 C 1.617188 -5.523438 2.21875 -5.671875 2.9375 -5.671875 Z M 2.9375 -5.671875 "/></g></g></g><g fill="#30cfd0" fill-opacity="1"><g transform="translate(23.919203, 17.572003)"><g><path d="M 2.703125 -4.375 C 3.398438 -4.375 3.96875 -4.222656 4.40625 -3.921875 C 4.84375 -3.628906 5.0625 -3.171875 5.0625 -2.546875 L 3.5 -2.546875 C 3.5 -3.035156 3.234375 -3.28125 2.703125 -3.28125 C 2.171875 -3.28125 1.90625 -2.976562 1.90625 -2.375 L 1.90625 -1.90625 C 1.90625 -1.300781 2.179688 -1 2.734375 -1 C 3.285156 -1 3.5625 -1.25 3.5625 -1.75 L 5.0625 -1.75 C 5.0625 -1.125 4.84375 -0.660156 4.40625 -0.359375 C 3.96875 -0.0546875 3.398438 0.09375 2.703125 0.09375 C 1.953125 0.09375 1.363281 -0.09375 0.9375 -0.46875 C 0.507812 -0.84375 0.296875 -1.398438 0.296875 -2.140625 C 0.296875 -2.878906 0.507812 -3.4375 0.9375 -3.8125 C 1.363281 -4.1875 1.953125 -4.375 2.703125 -4.375 Z M 2.703125 -4.375 "/></g></g></g><g fill="#30cfd0" fill-opacity="1"><g transform="translate(29.331486, 17.572003)"><g><path d="M 6.15625 -2.25 C 6.15625 -1.488281 5.914062 -0.90625 5.4375 -0.5 C 4.957031 -0.101562 4.269531 0.09375 3.375 0.09375 C 2.488281 0.09375 1.800781 -0.101562 1.3125 -0.5 C 0.832031 -0.90625 0.59375 -1.488281 0.59375 -2.25 L 0.59375 -5.578125 L 2.390625 -5.578125 L 2.390625 -2.265625 C 2.390625 -1.953125 2.472656 -1.703125 2.640625 -1.515625 C 2.804688 -1.328125 3.050781 -1.234375 3.375 -1.234375 C 3.695312 -1.234375 3.941406 -1.328125 4.109375 -1.515625 C 4.273438 -1.710938 4.359375 -1.960938 4.359375 -2.265625 L 4.359375 -5.578125 L 6.15625 -5.578125 Z M 6.15625 -2.25 "/></g></g></g><g fill="#30cfd0" fill-opacity="1"><g transform="translate(36.090755, 17.572003)"><g><path d="M 3.4375 -4.375 C 3.9375 -4.375 4.3125 -4.234375 4.5625 -3.953125 C 4.8125 -3.679688 4.9375 -3.285156 4.9375 -2.765625 L 4.9375 0 L 3.3125 0 L 3.3125 -2.578125 C 3.3125 -2.765625 3.265625 -2.910156 3.171875 -3.015625 C 3.078125 -3.128906 2.941406 -3.1875 2.765625 -3.1875 C 2.566406 -3.1875 2.40625 -3.117188 2.28125 -2.984375 C 2.15625 -2.859375 2.09375 -2.703125 2.09375 -2.515625 L 2.09375 0 L 0.484375 0 L 0.484375 -4.28125 L 1.8125 -4.28125 L 1.90625 -3.640625 C 2.082031 -3.859375 2.304688 -4.035156 2.578125 -4.171875 C 2.847656 -4.304688 3.132812 -4.375 3.4375 -4.375 Z M 3.4375 -4.375 "/></g></g></g><g fill="#30cfd0" fill-opacity="1"><g transform="translate(41.503039, 17.572003)"><g><path d="M 2.109375 -3.890625 C 2.421875 -4.210938 2.820312 -4.375 3.3125 -4.375 C 3.882812 -4.375 4.328125 -4.1875 4.640625 -3.8125 C 4.953125 -3.4375 5.109375 -2.882812 5.109375 -2.15625 C 5.109375 -1.40625 4.953125 -0.84375 4.640625 -0.46875 C 4.328125 -0.09375 3.882812 0.09375 3.3125 0.09375 C 2.71875 0.09375 2.265625 -0.140625 1.953125 -0.609375 L 1.8125 0 L 0.5 0 L 0.5 -5.875 L 2.109375 -5.875 Z M 2.8125 -3.1875 C 2.570312 -3.1875 2.390625 -3.097656 2.265625 -2.921875 C 2.148438 -2.753906 2.09375 -2.535156 2.09375 -2.265625 L 2.09375 -2 C 2.09375 -1.726562 2.148438 -1.507812 2.265625 -1.34375 C 2.390625 -1.175781 2.570312 -1.09375 2.8125 -1.09375 C 3.269531 -1.09375 3.5 -1.367188 3.5 -1.921875 L 3.5 -2.359375 C 3.5 -2.910156 3.269531 -3.1875 2.8125 -3.1875 Z M 2.8125 -3.1875 "/></g></g></g><g fill="#30cfd0" fill-opacity="1"><g transform="translate(46.915323, 17.572003)"><g><path d="M 0.546875 0 L 0.546875 -5.875 L 2.15625 -5.875 L 2.15625 0 Z M 0.546875 0 "/></g></g></g><g fill="#30cfd0" fill-opacity="1"><g transform="translate(49.617409, 17.572003)"><g><path d="M 3.59375 0 L 3.484375 -0.65625 C 3.316406 -0.414062 3.097656 -0.226562 2.828125 -0.09375 C 2.554688 0.03125 2.269531 0.09375 1.96875 0.09375 C 1.46875 0.09375 1.09375 -0.0390625 0.84375 -0.3125 C 0.59375 -0.59375 0.46875 -0.992188 0.46875 -1.515625 L 0.46875 -4.28125 L 2.078125 -4.28125 L 2.078125 -1.703125 C 2.078125 -1.515625 2.125 -1.363281 2.21875 -1.25 C 2.320312 -1.144531 2.457031 -1.09375 2.625 -1.09375 C 2.820312 -1.09375 2.984375 -1.15625 3.109375 -1.28125 C 3.234375 -1.414062 3.296875 -1.578125 3.296875 -1.765625 L 3.296875 -4.28125 L 4.921875 -4.28125 L 4.921875 0 Z M 3.59375 0 "/></g></g></g><g fill="#30cfd0" fill-opacity="1"><g transform="translate(55.029693, 17.572003)"><g><path d="M 3.09375 -4.390625 C 3.21875 -4.390625 3.328125 -4.375 3.421875 -4.34375 C 3.515625 -4.3125 3.5625 -4.296875 3.5625 -4.296875 L 3.5625 -2.9375 L 3.046875 -2.9375 C 2.710938 -2.9375 2.46875 -2.847656 2.3125 -2.671875 C 2.164062 -2.503906 2.09375 -2.25 2.09375 -1.90625 L 2.09375 0 L 0.484375 0 L 0.484375 -4.28125 L 1.8125 -4.28125 L 1.90625 -3.640625 C 2.007812 -3.878906 2.164062 -4.0625 2.375 -4.1875 C 2.582031 -4.320312 2.820312 -4.390625 3.09375 -4.390625 Z M 3.09375 -4.390625 "/></g></g></g><g clip-path="url(#208ae43f73)"><path fill="#30cfd0" d="M 1.765625 10.160156 L 1.765625 10.066406 C 1.765625 8.960938 2.679688 8.054688 3.785156 8.105469 C 4.035156 8.117188 4.269531 8.171875 4.496094 8.277344 C 4.722656 8.378906 4.921875 8.519531 5.097656 8.699219 C 5.269531 8.878906 5.398438 9.085938 5.492188 9.316406 C 5.585938 9.546875 5.632812 9.789062 5.632812 10.035156 L 5.632812 11.953125 C 5.632812 13.382812 6.601562 15.28125 8.085938 15.917969 C 7.367188 15.882812 6.667969 15.742188 5.992188 15.496094 C 5.605469 15.355469 5.238281 15.179688 4.882812 14.972656 C 3.929688 14.421875 3.164062 13.675781 2.585938 12.738281 C 2.089844 11.921875 1.816406 11.050781 1.765625 10.160156 Z M 13.792969 16.121094 C 13.960938 17.9375 12.929688 19.660156 11.253906 20.375 L 11.230469 20.382812 C 10.605469 20.648438 9.957031 20.816406 9.28125 20.886719 C 8.605469 20.957031 7.9375 20.925781 7.273438 20.796875 C 6.605469 20.667969 5.972656 20.441406 5.375 20.125 C 4.777344 19.804688 4.238281 19.40625 3.757812 18.925781 C 3.65625 18.824219 3.558594 18.71875 3.464844 18.613281 C 2.214844 17.414062 0.640625 13.140625 1.03125 12.0625 C 1.1875 12.5 1.390625 12.921875 1.632812 13.320312 C 1.675781 13.390625 1.722656 13.460938 1.765625 13.53125 C 1.824219 13.621094 1.886719 13.707031 1.949219 13.796875 C 2.625 14.71875 3.460938 15.460938 4.460938 16.015625 C 5.671875 16.691406 6.964844 17.03125 8.347656 17.042969 C 8.441406 17.050781 8.535156 17.054688 8.628906 17.054688 C 9.160156 17.042969 9.652344 16.902344 10.105469 16.625 C 10.558594 16.347656 10.914062 15.976562 11.167969 15.511719 C 11.167969 15.511719 11.167969 15.507812 11.167969 15.507812 C 11.707031 14.183594 11.273438 11.953125 9.859375 10.695312 C 10.464844 10.972656 11.019531 11.335938 11.523438 11.773438 C 11.886719 12.089844 12.210938 12.441406 12.5 12.828125 C 13.152344 13.6875 13.566406 14.652344 13.742188 15.722656 C 13.765625 15.855469 13.78125 15.988281 13.792969 16.121094 Z M 11.269531 15.304688 C 11.214844 15.414062 11.179688 15.488281 11.167969 15.507812 C 11.203125 15.441406 11.238281 15.375 11.269531 15.304688 Z M 14.824219 8.667969 C 14.441406 8.285156 13.976562 8.097656 13.433594 8.105469 C 12.371094 8.113281 11.519531 9 11.519531 10.0625 C 11.519531 10.257812 11.597656 10.414062 11.753906 10.53125 C 12.316406 10.949219 12.8125 11.429688 13.25 11.976562 C 13.964844 12.871094 14.460938 13.875 14.734375 14.984375 C 14.777344 15.171875 14.816406 15.355469 14.847656 15.542969 C 14.902344 15.878906 14.929688 16.21875 14.933594 16.558594 C 14.945312 17.34375 14.820312 18.105469 14.5625 18.84375 C 14.5 19.015625 14.429688 19.1875 14.355469 19.355469 C 16.988281 17.042969 16.058594 11.25 15.355469 9.667969 C 15.355469 9.667969 15.089844 8.9375 14.824219 8.667969 Z M 14.824219 8.667969 " fill-opacity="1" fill-rule="nonzero"/></g></svg>